<?xml version="1.0" encoding="utf-8"?>
<!-- Generator: Adobe Illustrator 27.5.0, SVG Export Plug-In . SVG Version: 6.00 Build 0)  -->
<svg version="1.1" xmlns="http://www.w3.org/2000/svg" xmlns:xlink="http://www.w3.org/1999/xlink" x="0px" y="0px"
	 viewBox="0 0 500 500" style="enable-background:new 0 0 500 500;" xml:space="preserve">
<g id="BACKGROUND">
	<rect style="fill:#FFFFFF;" width="500" height="500"/>
</g>
<g id="OBJECTS">
	<g>
		<g>
			<path style="fill:#F0EADD;" d="M401.785,369.811c-0.135-0.136-0.244-0.353-0.352-0.515c0.19-0.407,0.352-0.868,0.407-1.328
				c0.136-1.112-0.109-2.196-0.434-3.254c-0.081-0.271-0.19-0.542-0.271-0.813c-0.054-0.163-0.108-0.325-0.163-0.488
				c-0.352-1.003-0.678-2.006-0.759-3.037c-0.027-0.163-0.027-0.353-0.027-0.515c0-0.298,0.027-0.624,0.081-0.922
				c0.136-1.166,0.461-2.305,0.325-3.47c-0.054-0.488-0.163-0.976-0.325-1.437c-0.135-0.434-0.325-0.84-0.461-1.274
				c-0.271-0.678-0.488-1.329-0.542-2.034c-0.217-2.521,1.681-4.907,1.545-7.375c0-0.217-0.027-0.434-0.054-0.624
				c-0.054-0.244-0.108-0.488-0.217-0.732v-0.027c-0.163-0.434-0.353-0.84-0.569-1.247c-0.461-0.895-0.949-1.79-1.003-2.793v-0.081
				c0-0.488,0.081-0.976,0.217-1.464c0.19-0.759,0.434-1.518,0.434-2.277v-0.027c0-0.163-0.027-0.325-0.054-0.488
				c-0.054-0.298-0.163-0.569-0.298-0.84c-0.217-0.461-0.515-0.895-0.813-1.328c0.163-1.112,0.434-2.169,0.895-3.091
				c0.407-0.786,0.949-1.464,1.681-1.952c1.013-0.681,1.725-1.455,1.753-2.315c-18.613,5.961-37.825,10.012-55.973,17.462
				c-11.515,4.727-23.369,8.459-35.106,12.59c-9.387,3.303-18.7,6.136-28.331,8.073v54.244c3.46-1.147,6.897-2.398,10.435-3.282
				c6.4-1.6,12.665-3.696,18.806-6.099c12.688-4.964,25.527-9.52,38.302-14.253c12.809-4.745,25.427-9.936,38.058-15.131
				c5.518-2.27,11.257-4.243,16.902-6.417c-1.429-0.322-3.071-0.466-4.005-1.356C401.84,369.866,401.813,369.838,401.785,369.811z"
				/>
			<g>
				<g>
					<g>
						<path style="fill:#F0DDB6;" d="M399.562,333.589c-0.054-0.298-0.163-0.569-0.298-0.84
							c-38.203,13.078-77.128,25.4-115.895,36.726v1.413c38.866-11.357,77.921-23.715,116.248-36.783v-0.027
							C399.616,333.914,399.589,333.751,399.562,333.589z"/>
					</g>
					<g>
						<path style="fill:#F0DDB6;" d="M283.369,374.765v1.479c37.573-15.194,76.387-28.083,115.597-38.399
							c0-0.488,0.081-0.976,0.217-1.464C359.908,346.704,321.001,359.604,283.369,374.765z"/>
					</g>
					<g>
						<path style="fill:#F0DDB6;" d="M283.369,385.691c38.157-16.468,77.502-31.179,117.169-43.725
							c-0.163-0.434-0.353-0.84-0.569-1.247c-39.48,12.513-78.614,27.121-116.6,43.494V385.691z"/>
					</g>
					<g>
						<path style="fill:#F0DDB6;" d="M283.369,391.611c39.101-15.678,78.568-31.891,117.441-48.262c0-0.217-0.027-0.434-0.054-0.624
							c-0.054-0.244-0.108-0.488-0.217-0.732c-38.766,16.331-78.122,32.529-117.169,48.175V391.611z"/>
					</g>
					<g>
						<path style="fill:#F0DDB6;" d="M283.369,397.043c38.666-14.771,77.921-29.227,116.898-43.012
							c-0.135-0.434-0.325-0.84-0.461-1.274c-38.813,13.727-77.927,28.119-116.438,42.826V397.043z"/>
					</g>
					<g>
						<path style="fill:#F0DDB6;" d="M400.267,358.939c-39.624,11.665-78.899,25.689-116.898,41.689v1.472
							c37.978-16.013,77.249-30.031,116.844-41.724c-0.027-0.163-0.027-0.353-0.027-0.515
							C400.186,359.563,400.213,359.237,400.267,358.939z"/>
					</g>
					<g>
						<path style="fill:#F0DDB6;" d="M283.369,408.48c38.457-16.437,78.086-31.135,118.037-43.766
							c-0.081-0.271-0.19-0.542-0.271-0.813c-0.054-0.163-0.108-0.325-0.163-0.488c-39.827,12.574-79.281,27.226-117.603,43.602
							V408.48z"/>
					</g>
				</g>
			</g>
		</g>
		<g>
			<path style="fill:#02909C;" d="M406.774,371.492c-1.573-0.542-3.769-0.515-4.907-1.6l-117.073,44.682l-1.03-50.972
				l115.582-35.274c0.407-0.786,0.949-1.464,1.681-1.952c1.735-1.166,2.603-2.603,0.624-4.284c-0.139-0.117-0.283-0.222-0.425-0.329
				c-4.27,2.206-8.971,3.197-13.509,4.811c-4.869,1.731-9.74,3.182-14.721,4.565c-11.422,3.171-22.602,7.236-33.841,10.991
				c-11.45,3.825-22.891,7.038-34.646,9.768c-5.441,1.264-10.916,2.506-16.274,4.084c-4.575,1.347-8.847,3.495-13.376,4.941
				c-0.022,14.762-0.06,44.568-0.041,60.862c5.07-0.325,9.598-2.061,14.804-3.904c11.848-4.175,23.751-8.134,35.626-12.201
				c7.754-2.657,15.481-5.341,23.235-7.998c3.986-1.356,7.944-2.738,11.93-4.094c3.172-1.085,7.998-3.877,11.333-3.877
				c10.439-3.606,20.904-7.131,31.397-10.628c1.762-0.596,5.124-3.009,5.422-5.016C408.781,372.523,407.94,371.872,406.774,371.492z
				"/>
			<path style="fill:#17B6C4;" d="M401.505,321.991l-115.663,34.813c-2.901,0.867-5.178,2.955-6.344,5.639
				c-0.569,1.247-0.868,2.63-0.868,4.067v54.768c-2.82,0.57-5.694,0.759-8.92,0.325c-7.808-1.057-15.617-2.277-23.398-3.606
				c-15.78-2.711-31.478-5.829-47.203-8.676c-29.77-5.368-59.512-10.872-89.255-16.349c-6.751-1.247-14.777-1.599-21.121-4.257
				c-7.971-3.362-11.008-14.532-11.604-22.422c-0.705-9.462,2.44-18.654,7.51-26.543c0.624-0.976,1.41-1.681,2.277-2.25
				c1.166-0.786,2.467-1.301,3.823-1.817c26.218-9.977,52.436-20.009,78.654-30.014c13.556-5.178,27.113-10.276,40.615-15.59
				c3.362-1.328,6.588-1.464,10.059-0.841c20.145,3.525,40.29,7.077,60.434,10.601c20.714,3.633,41.401,7.212,62.142,10.736
				c10.357,1.762,20.714,3.498,31.071,5.233c5.179,0.867,10.357,1.735,15.536,2.603
				C393.507,319.145,398.062,319.172,401.505,321.991z"/>
			<path style="fill:#026870;" d="M279.498,362.444c-0.569,1.247-0.868,2.63-0.868,4.067v54.768c-2.82,0.57-5.694,0.759-8.92,0.325
				c-7.808-1.057-15.617-2.277-23.398-3.606c-15.78-2.711-31.478-5.829-47.203-8.676c-29.77-5.368-59.512-10.872-89.255-16.349
				c-6.751-1.247-14.777-1.599-21.121-4.257c-7.971-3.362-11.008-14.532-11.604-22.422c-0.705-9.462,2.44-18.654,7.51-26.543
				c0.624-0.976,1.41-1.681,2.277-2.25L279.498,362.444z"/>
		</g>
		<g>
			<g>
				<g>
					<path style="fill:#132762;" d="M95.841,390.728c-2.499-0.494-4.893-1.137-7.092-2.065c-0.03-0.015-0.075-0.03-0.105-0.045
						c-2.364-7.078-3.412-14.619-2.978-22.011c0.613-10.818,3.44-20.264,9.694-29.107l5.852,2.054
						c-5.626,7.945-9.023,17.672-9.576,27.398C91.172,375.002,92.654,383.276,95.841,390.728z"/>
				</g>
				<g>
					<path style="fill:#132762;" d="M264.289,398.666c-0.513,0-1.018-0.169-1.43-0.497c-1.879-1.502-3.595-3.213-5.097-5.085
						c-0.719-0.895-2.908-3.62-1.547-6.31c0.606-1.194,1.859-2.059,3.27-2.256c2.402-0.335,4.353,1.008,5.566,2.593
						c0.725-0.715,1.533-1.447,2.446-1.894c1.441-0.704,2.993-0.712,4.151-0.026c1.188,0.704,1.92,2.122,1.91,3.702
						c-0.007,1.143-0.367,2.333-1.133,3.744c-1.482,2.73-4.075,4.228-7.064,5.77l0,0
						C265.023,398.581,264.655,398.666,264.289,398.666z M260.212,385.962c-0.169,0-0.343,0.012-0.52,0.036
						c-0.934,0.131-1.755,0.687-2.142,1.45c-0.631,1.248-0.194,2.741,1.378,4.698c1.435,1.786,3.072,3.419,4.866,4.853
						c0.243,0.197,0.592,0.226,0.881,0.076l0,0c2.765-1.426,5.157-2.798,6.435-5.154c0.643-1.186,0.945-2.152,0.951-3.039
						c0.006-1.035-0.456-1.979-1.176-2.406c-0.853-0.506-1.971-0.289-2.731,0.083c-0.872,0.427-1.723,1.281-2.472,2.034
						l-0.894,0.894l-0.491-0.829C263.496,387.311,262.032,385.962,260.212,385.962z"/>
				</g>
			</g>
		</g>
		<path style="fill:#FFFFFF;" d="M401.65,322.093c-0.589-0.494-1.171-0.883-1.82-1.229c-19.113,5.805-115.023,34.865-116.194,35.224
			c-0.185,0.073-3.267,1.333-5.12,4.721L88.582,336.561c-1.314,0.613-2.567,1.354-3.513,2.6L277.44,363.69
			c-0.191,0.854-0.306,1.789-0.306,2.821v55.018c1.008-0.149,2.003-0.344,2.993-0.584v-54.434c0-5.696,4.423-7.563,4.49-7.597
			c11.357-3.442,105.08-31.852,117.921-35.758C402.356,322.813,402.082,322.46,401.65,322.093z"/>
	</g>
	<g>
		<g>
			<path style="fill:#F0EADD;" d="M372.287,289.888c0.678-1.03,2.006-1.817,1.925-3.199c-0.008-0.132-0.034-0.254-0.061-0.374
				c-3.43,1.049-6.897,2.061-10.326,3.248c-12.901,4.468-25.882,8.728-38.809,13.124c-12.79,4.349-25.484,8.958-38.333,13.134
				c-6.395,2.078-12.887,3.977-19.165,6.393c-2.074,0.798-4.126,1.631-6.186,2.424v31.581c10.879-3.994,21.935-7.38,32.701-11.741
				c12.004-4.863,23.94-9.893,35.927-14.798c11.506-4.709,23.954-9.097,35.034-13.568c2.598-1.048,5.585-2.204,8.578-3.395
				c-0.502-0.114-0.949-0.243-1.258-0.433c-0.109-0.081-0.217-0.136-0.325-0.217c-0.244-0.19-0.461-0.38-0.678-0.597
				c0.108-0.298,0.217-0.569,0.271-0.895c0.135-0.488,0.244-1.003,0.271-1.545c0.054-0.569,0.054-1.139-0.054-1.708
				c0-0.271-0.054-0.542-0.135-0.814c-0.054-0.163-0.081-0.325-0.136-0.488c-0.19-0.651-0.352-1.328-0.163-1.979
				c0-0.027,0-0.027,0.027-0.054c0.19-0.624,0.705-1.139,0.976-1.708c0.135-0.244,0.19-0.461,0.217-0.732
				c0.027-0.352-0.054-0.651-0.217-0.976c-0.19-0.407-0.461-0.786-0.651-1.193c-0.108-0.163-0.19-0.326-0.244-0.515
				c-0.19-0.542-0.217-1.112-0.163-1.681c0.027-0.461,0.081-0.922,0.108-1.383v-0.109c0.081-1.03-0.054-2.034-0.353-3.037
				c0.108-0.407,0.244-0.786,0.407-1.166C371.69,290.945,371.961,290.403,372.287,289.888z"/>
			<g>
				<g>
					<g>
						<path style="fill:#F0DDB6;" d="M371.419,295.69v0.109c-0.027,0.461-0.081,0.922-0.108,1.383
							c-12.499,4.826-25.757,7.7-38.663,10.493c-5.016,1.084-10.194,2.223-15.237,3.416c-18.87,4.555-37.443,10.845-55.229,18.681
							l-0.542-1.247c17.84-7.863,36.521-14.18,55.473-18.735c5.043-1.22,10.221-2.332,15.237-3.416
							C345.418,303.526,358.866,300.625,371.419,295.69z"/>
					</g>
					<g>
						<path style="fill:#F0DDB6;" d="M261.332,333.667c36.47-12.077,73.752-23.199,111.036-33.096
							c-0.19-0.407-0.461-0.786-0.651-1.193c-37.056,9.832-74.108,20.879-110.385,32.873V333.667z"/>
					</g>
					<g>
						<path style="fill:#F0DDB6;" d="M372.368,302.279c-0.271,0.569-0.786,1.085-0.976,1.708L261.775,338.04l-0.407-1.301
							L372.368,302.279z"/>
					</g>
					<g>
						<path style="fill:#F0DDB6;" d="M371.799,307.322L262.182,343.87l-0.434-1.301l109.779-36.548
							c0.054,0.163,0.081,0.325,0.136,0.488C371.745,306.779,371.799,307.05,371.799,307.322z"/>
					</g>
					<g>
						<path style="fill:#F0DDB6;" d="M371.853,309.03c-0.027,0.542-0.136,1.057-0.271,1.545l-109.644,38.853l-0.461-1.274
							L371.853,309.03z"/>
					</g>
				</g>
			</g>
		</g>
		<g>
			<path style="fill:#92AEEB;" d="M377.845,315.238c-0.027,1.356-2.25,2.386-3.226,2.928c-2.901,1.627-6.154,2.494-9.218,3.66
				c-4.962,1.844-9.951,3.633-14.939,5.341c-9.598,3.335-19.25,6.534-28.848,9.923c-13.638,4.853-27.275,9.706-40.913,14.559
				c-5.911,2.088-12.201,5.152-18.491,5.775c-1.654,0.163-3.281,0.163-4.934,0.054l-0.732-42.079c0,0,75.102-22.585,107.746-32.102
				c1.112,0.109,2.25,0.217,3.362,0.325c1.979,0.163,6.399,0.326,6.561,3.064c0.081,1.383-1.247,2.169-1.925,3.199
				c-0.325,0.515-0.596,1.057-0.813,1.6L264.08,324.945l0.895,27.736l107.014-40.615c0.108,0.081,0.217,0.135,0.325,0.217
				C373.724,313.151,377.899,312.771,377.845,315.238z"/>
			<path style="fill:#3E68BD;" d="M372.711,284.662l-108.315,34.027c-1.762,0.542-3.172,1.735-4.04,3.253
				c-0.678,1.085-1.03,2.332-1.03,3.66v31.939c-5.151-0.054-10.276-1.41-15.319-2.305c-9.11-1.6-18.247-3.172-27.357-4.772
				c-17.922-3.145-36.358-5.287-54.063-9.462c-11.36-1.979-22.666-4.365-34.081-5.829c-8.568-1.085-11.415-4.962-13.177-13.34
				c-1.491-7.212,0.813-13.882,4.718-20.009c0.651-1.03,1.546-1.79,2.521-2.359h0.027c0.596-0.352,1.247-0.651,1.898-0.895
				c25.513-9.706,50.999-19.413,76.485-29.119c1.762-0.651,3.579-0.922,5.504-0.732c26.543,2.467,53.087,4.907,79.657,7.348
				c27.167,2.522,54.334,5.016,81.501,7.537C368.915,283.714,371.193,283.849,372.711,284.662z"/>
			<path style="fill:#6186D6;" d="M260.356,321.942c-0.678,1.085-1.03,2.332-1.03,3.66v31.939
				c-5.151-0.054-10.276-1.41-15.319-2.305c-9.11-1.6-18.247-3.172-27.357-4.772c-17.922-3.145-36.358-5.287-54.063-9.462
				c-11.36-1.979-22.666-4.365-34.081-5.829c-8.568-1.085-11.415-4.962-13.177-13.34c-1.491-7.212,0.813-13.882,4.718-20.009
				c0.651-1.03,1.546-1.79,2.521-2.359h0.027L260.356,321.942z"/>
		</g>
		<path style="fill:#FFFFFF;" d="M210.712,331.874c0,1.161-0.942,2.103-2.103,2.103c-1.161,0-2.103-0.942-2.103-2.103
			s0.942-2.103,2.103-2.103C209.77,329.771,210.712,330.712,210.712,331.874z"/>
		<path style="fill:#FFFFFF;" d="M370.013,283.856l-105.98,33.381c-1.231,0.309-3.091,1.249-4.453,3.009l-134.822-21.778
			c-0.084,0.032-0.169,0.064-0.253,0.096c-1.4,0.53-2.709,1.218-3.708,2.294l137.379,22.192c-0.215,0.766-0.345,1.612-0.345,2.552
			v31.894c1,0.051,1.996,0.047,2.993,0.001v-31.896c0-4.292,3.544-5.358,4.024-5.487l109.102-34.362
			C373.306,284.57,371.606,284.087,370.013,283.856z"/>
	</g>
	<g>
		<g>
			<path style="fill:#F0EADD;" d="M107.288,268.028c0.38,0.271,0.678,0.542,0.922,0.813c0.298,0.325,0.515,0.651,0.705,1.003
				c-0.163,0.163-0.298,0.325-0.434,0.515c-0.136,0.163-0.271,0.38-0.38,0.569c-0.109,0.217-0.217,0.434-0.271,0.651
				c-0.19,0.542-0.244,1.139-0.108,1.708c0,0.027,0.027,0.054,0.027,0.081c0.19,0.515,0.569,1.058,0.596,1.573
				c0,0.081,0,0.19-0.027,0.271c-0.136,0.705-0.949,1.139-0.949,1.844v0.027c0.027,0.678,0.813,1.085,1.058,1.681
				c0.027,0.081,0.054,0.136,0.054,0.217c0.081,0.515-0.244,0.976-0.38,1.464c-0.244,0.895,0.19,1.871,0.868,2.495
				c0.054,0.054,0.081,0.054,0.108,0.108c0.027,0,0.054,0,0.081,0.027c0.027,0.027,0.027,0.027,0.054,0.054
				c-0.421,0.632-1.037,0.892-1.545,1.47c0.222,0.071,0.446,0.128,0.666,0.217c7.046,2.861,14.53,3.238,21.892,4.818
				c7.464,1.602,14.777,3.867,22.182,5.715c15.137,3.777,30.463,6.571,45.673,10.002c15.627,3.525,31.161,7.464,46.797,10.952
				c1.895,0.423,3.84,0.731,5.71,1.241c0.114,0.031,0.197,0.056,0.283,0.082c0.168,0,0.365,0.002,0.635,0.012
				c2.579,0.095,5.193,0.311,7.762,0.56c1.969,0.191,4.021,0.4,6.064,0.727v-16.409c-2.262-0.811-4.543-1.638-6.934-2.331
				c-7.334-2.125-14.86-3.617-22.393-4.831c-15.735-2.536-30.987-5.361-46.397-9.524c-26.602-7.186-53.516-13.18-79.966-20.908
				c-0.989,0.433-1.869,1.071-2.543,2.048c-0.108,0.19-0.244,0.434-0.19,0.651C106.963,267.784,107.126,267.919,107.288,268.028z"/>
			<g>
				<g>
					<g>
						<path style="fill:#F0DDB6;" d="M263.322,308.453l-0.271,1.301c-51.894-11.062-104.113-23.914-155.22-38.175
							c0.054-0.217,0.163-0.434,0.271-0.651c0.108-0.19,0.244-0.406,0.38-0.569C159.507,284.567,211.564,297.391,263.322,308.453z"
							/>
					</g>
					<g>
						<path style="fill:#F0DDB6;" d="M263.241,312.032l-0.298,1.328l-106.824-25.242c-15.834-3.742-32.128-7.592-47.773-13.177
							c-0.027-0.515-0.407-1.057-0.596-1.572c0-0.027-0.027-0.054-0.027-0.081c15.888,5.775,32.535,9.706,48.695,13.529
							L263.241,312.032z"/>
					</g>
					<g>
						<path style="fill:#F0DDB6;" d="M265.332,315.482c-52.674-11.592-105.835-24.528-157.963-38.398
							c0.027,0.678,0.813,1.085,1.058,1.681c51.81,13.786,104.551,26.582,156.905,38.106V315.482z"/>
					</g>
				</g>
			</g>
		</g>
		<g>
			<path style="fill:#02909C;" d="M271.863,324.422c-0.949-0.054-1.898-0.19-2.874-0.434c-51.867-11.496-103.733-22.964-155.6-34.46
				c-2.196-0.488-4.284-0.732-5.748-2.684c-0.353-0.461-0.651-1.112-0.38-1.654c0.542-1.057,1.41-1.247,1.952-2.061
				c-0.027-0.027-0.027-0.027-0.054-0.054l153.051,35.192c0,0,0-10.953,0-11.387s-134.615-33.322-154-38.039
				c-0.244-0.271-0.542-0.542-0.922-0.813c-0.163-0.108-0.325-0.244-0.38-0.407c-0.054-0.217,0.081-0.461,0.19-0.651
				c2.115-3.064,6.236-2.82,9.489-3.226c0.732-0.109,1.464-0.19,2.196-0.298c35.707,8.459,152.807,36.223,153.051,36.44
				C272.052,300.102,271.944,316.777,271.863,324.422z"/>
			<path style="fill:#02909C;" d="M374.746,290.457c-0.054,1.545-0.19,3.145-0.786,4.582c-1.573,3.633-6.588,4.148-9.978,5.07
				c-3.497,0.949-6.968,1.979-10.465,2.955c-7.402,2.034-14.777,4.04-22.178,6.046c-17.867,4.907-35.789,9.706-53.629,14.695
				c-2.982,0.813-5.775,0.841-8.73,0.19c-0.081-0.027-0.163-0.027-0.244-0.054V308.65c0-1.464-0.596-2.82-1.573-3.796
				c-0.678-0.705-1.545-1.22-2.549-1.464l-155.085-38.392c2.115-1.003,4.799-0.976,7.076-1.274c4.311-0.569,8.622-1.139,12.96-1.708
				c8.486-1.112,17-2.223,25.486-3.335c17.813-2.332,35.599-4.691,53.385-7.049c5.26-0.678,10.493-1.6,15.78-2.061
				c4.853-0.407,9.544,1.22,14.316,2.033c28.116,4.799,56.232,9.761,84.348,14.668c8.107,1.41,16.213,2.792,24.32,4.202
				c4.121,0.732,8.242,1.464,12.363,2.196c3.525,0.624,7.836,0.705,11.171,2.006c0.488,0.19,0.895,0.407,1.247,0.651
				c2.738,1.871,2.494,5.341,2.684,9.083C374.773,286.417,374.827,288.451,374.746,290.457z"/>
			<path style="fill:#026870;" d="M374.746,290.457c-0.054,1.545-0.19,3.145-0.786,4.582c-1.573,3.633-6.588,4.148-9.978,5.07
				c-3.497,0.949-6.968,1.979-10.465,2.955c-7.402,2.034-14.777,4.04-22.178,6.046c-17.867,4.907-35.789,9.706-53.629,14.695
				c-2.982,0.813-5.775,0.841-8.73,0.19c-0.081-0.027-0.163-0.027-0.244-0.054V308.65c0-1.464-0.596-2.82-1.573-3.796
				l104.818-29.526c2.738,1.871,2.494,5.341,2.684,9.083C374.773,286.417,374.827,288.451,374.746,290.457z"/>
		</g>
		<g>
			<g>
				<g>
					<path style="fill:#241C19;" d="M286.532,317.308c-0.135,1.571-0.673,3.022-1.272,4.414c-0.614,0.165-1.227,0.329-1.841,0.509
						c0.03-0.075,0.06-0.15,0.09-0.224c0.718-1.631,1.392-3.172,1.526-4.818c0.21-2.544-1.092-5.207-3.232-6.614
						c-0.314-0.21-0.658-0.389-0.988-0.584c-0.913-0.509-1.841-1.033-2.514-1.945c-0.718-1.003-0.973-2.379-0.673-3.681
						c0.269-1.122,0.898-2.199,1.855-3.097l1.032,1.077c-0.524,0.494-1.182,1.302-1.421,2.349c-0.21,0.898-0.045,1.825,0.434,2.484
						c0.464,0.643,1.212,1.062,2.02,1.511c0.359,0.194,0.733,0.404,1.077,0.628C285.245,311.054,286.786,314.181,286.532,317.308z"
						/>
				</g>
			</g>
			<g>
				<g>
					<path style="fill:#241C19;" d="M371.403,293.053c-0.239,1.93-0.928,3.756-1.676,5.506h-0.015
						c-0.599,0.24-1.227,0.434-1.87,0.599c0.898-2.035,1.811-4.13,2.065-6.285c0.299-2.394-0.344-4.609-1.691-5.94
						c-0.793-0.793-1.826-1.302-2.933-1.855c-1.376-0.688-2.529-1.302-3.456-2.304c-1.137-1.242-1.586-2.858-1.167-4.22l1.422,0.434
						c-0.254,0.853,0.075,1.93,0.853,2.768c0.748,0.808,1.766,1.362,2.933,1.945c1.242,0.614,2.424,1.212,3.397,2.155
						C370.939,287.517,371.747,290.21,371.403,293.053z"/>
				</g>
			</g>
		</g>
		<path style="fill:#FFFFFF;" d="M370.716,274.67c-0.435-0.168-0.89-0.313-1.357-0.444l-101.256,29.4
			c-1.056-0.974-2.278-1.51-3.122-1.687L114.2,263.974c-2.038,0.185-4.403,0.548-5.727,1.602l155.823,39.276
			c0.301,0.069,2.943,0.758,2.943,3.798v14.951c0.583,0.129,1.166,0.258,1.75,0.387c0.419,0.105,0.832,0.181,1.243,0.247V308.65
			c0-0.914-0.174-1.695-0.423-2.403l103.197-29.963C372.46,275.626,371.737,275.069,370.716,274.67z"/>
	</g>
	<g>
		<g>
			<path style="fill:#F0EADD;" d="M258.504,287.464c5.87-0.995,11.838-1.343,17.736-2.139c11.392-1.538,22.593-4.225,33.973-5.883
				c12.429-1.811,24.785-3.586,37.142-5.852c5.591-1.025,11.205-1.744,16.851-2.375c1.012-0.113,1.57-0.165,2.098-0.231
				c-0.061-0.128-0.141-0.255-0.264-0.379c-0.624-0.624-1.6-0.895-2.359-1.329c-0.244-0.135-0.434-0.298-0.624-0.461
				c0.298-0.569,0.461-1.247,0.488-1.898c0-0.298-0.027-0.569-0.054-0.841l-0.081-0.488c-0.163-1.085-0.434-2.142-0.325-3.172
				c0-0.271,0.054-0.515,0.135-0.759c0.081-0.217,0.163-0.434,0.244-0.678c0.135-0.353,0.244-0.732,0.163-1.112
				c-0.027-0.163-0.108-0.298-0.163-0.434c-0.163-0.271-0.353-0.515-0.515-0.759c-0.108-0.163-0.19-0.325-0.244-0.488
				c-0.108-0.271-0.19-0.542-0.244-0.813c-0.081-0.461-0.135-0.922-0.19-1.383c0-0.217-0.027-0.407-0.054-0.624
				c-0.054-0.298-0.108-0.624-0.217-1.003c-0.054-0.19-0.108-0.407-0.19-0.624c0.054-0.271,0.136-0.542,0.244-0.786
				c0.135-0.38,0.271-0.759,0.488-1.111c0.38-0.759,0.922-1.383,1.654-1.871c0.813-0.515,1.193-0.976,1.22-1.383
				c0.055-0.515-0.414-0.939-1.135-1.289c-0.309,0.015-0.621,0.011-0.934-0.002c-1.486,0.183-2.915,0.374-4.213,0.626
				c-6.459,1.253-12.784,3.156-19.203,4.592c-12.764,2.855-25.681,4.941-38.537,7.326c-13.041,2.419-25.91,5.57-39.034,7.537
				c-5.554,0.832-11.043,1.761-16.518,2.74v19.881C249.912,289.443,254.31,288.175,258.504,287.464z"/>
			<g>
				<g>
					<g>
						<path style="fill:#F0DDB6;" d="M362.054,252.954c-38.451,7.277-77.487,13.833-116.212,19.515v1.384
							c38.706-5.689,77.699-12.254,116.158-19.489c-0.054-0.19-0.108-0.407-0.19-0.624
							C361.864,253.469,361.946,253.198,362.054,252.954z"/>
					</g>
					<g>
						<path style="fill:#F0DDB6;" d="M245.842,275.502l116.619-18.129c-0.081-0.461-0.135-0.922-0.19-1.383L245.842,274.14V275.502z
							"/>
					</g>
					<g>
						<path style="fill:#F0DDB6;" d="M245.842,278.808l117.622-19.374c-0.163-0.271-0.353-0.515-0.515-0.759
							c-0.108-0.163-0.19-0.325-0.244-0.488l-116.863,19.225V278.808z"/>
					</g>
					<g>
						<path style="fill:#F0DDB6;" d="M245.842,280.659v1.396l117.243-19.639c0-0.271,0.054-0.515,0.135-0.759
							c0.081-0.217,0.163-0.434,0.244-0.678L245.842,280.659z"/>
					</g>
					<g>
						<path style="fill:#F0DDB6;" d="M245.842,285.484c38.885-7.275,78.453-13.536,117.704-18.567c0-0.298-0.027-0.569-0.054-0.841
							l-0.081-0.488c-39.196,5.02-78.708,11.24-117.568,18.521V285.484z"/>
					</g>
				</g>
			</g>
		</g>
		<g>
			<path style="fill:#FF6930;" d="M363.491,274.184c-1.817,0.651-3.931,0.678-5.829,0.976c-27.492,4.121-54.957,8.134-82.45,12.201
				c-6.968,1.003-13.909,2.034-20.85,3.064c-4.989,0.732-10.194,2.359-15.319,2.088v-33.674c0,0,88.035-10.086,118.185-13.231
				c0.352,0.081,0.678,0.136,1.03,0.217c1.464,0.298,7.347,1.003,7.158,2.766c-0.027,0.407-0.407,0.868-1.22,1.383
				c-0.732,0.488-1.274,1.112-1.654,1.871l-116.314,18.925v17l117.452-18.491c0.759,0.434,1.735,0.705,2.359,1.329
				C367.449,272.014,364.521,273.804,363.491,274.184z"/>
			<path style="fill:#AD3102;" d="M365.298,248.054l-118.483,18.572c-2.386,0.38-4.311,2.006-5.124,4.148
				c-0.325,0.759-0.488,1.572-0.488,2.44v19.304c-1.844,0.054-3.66-0.054-5.45-0.515c-38.988-9.869-77.976-19.738-116.991-29.499
				c-3.714-0.922-5.504-2.874-6.209-6.561c-1.003-5.287-1.383-10.52,0.081-15.753c0.678-2.467,1.464-3.66,3.091-4.284h0.027
				c0.732-0.271,1.654-0.434,2.82-0.515c21.012-1.627,42.025-3.226,63.01-4.881c12.58-1.003,25.133-2.006,37.687-3.009
				c9.056-0.732,18.111-1.464,27.167-2.223c4.094-0.352,8.052-0.108,12.065,0.678c1.274,0.244,2.522,0.515,3.796,0.786
				c4.474,0.895,8.974,1.816,13.448,2.711c27.492,5.449,55.012,10.926,82.504,16.376
				C359.55,246.102,364.431,246.671,365.298,248.054z"/>
			<path style="fill:#FF500D;" d="M241.691,270.774c-0.325,0.759-0.488,1.572-0.488,2.44v19.304c-1.844,0.054-3.66-0.054-5.45-0.515
				c-38.988-9.869-77.976-19.738-116.991-29.499c-3.714-0.922-5.504-2.874-6.209-6.561c-1.003-5.287-1.383-10.52,0.081-15.753
				c0.678-2.467,1.464-3.66,3.091-4.284h0.027L241.691,270.774z"/>
		</g>
		<path style="fill:#FFFFFF;" d="M365.416,248.589c0.09-0.84-1.201-1.438-2.734-1.868L246.67,265.134
			c-1.61,0.079-4.283,1.036-5.65,3.899L120.193,235.26c-0.537,0.042-1.074,0.083-1.611,0.125c-2.043,0.16-3.304,0.49-4.2,1.329
			l125.851,35.206c-0.009,0.082-0.025,0.157-0.032,0.242c-0.385,4.376-0.607,15.516-0.687,20.354
			c0.997,0.031,1.996-0.002,2.995-0.088c0.083-4.877,0.304-15.819,0.673-20.005c0.355-4.029,3.348-4.286,3.672-4.302l118.085-18.727
			C365.234,249.106,365.399,248.837,365.416,248.589z"/>
	</g>
	<g>
		<g>
			<path style="fill:#F0EADD;" d="M149.564,235.031c0.108,0.434,0.271,0.895,0.434,1.356c0.136,0.379,0.271,0.732,0.325,1.084
				c0.054,0.244,0.081,0.461,0.054,0.678c-0.027,0.244-0.108,0.461-0.217,0.678c-0.136,0.352-0.38,0.705-0.515,1.057
				c-0.081,0.19-0.136,0.38-0.136,0.596c0,0.271,0.054,0.515,0.136,0.786c0.081,0.271,0.217,0.515,0.298,0.786
				c0.163,0.434,0.217,0.895,0.244,1.356c0.027,0.461,0.054,0.922,0.163,1.356c0,0.081,0,0.136,0.027,0.217
				c0.054,0.271,0.163,0.515,0.325,0.759c0.027,0.081,0.081,0.136,0.135,0.217c-0.407,0.651-1.166,1.6-1.139,2.25
				c0,0.081,0.027,0.19,0.054,0.271c0.244,0.407,0.705,0.597,1.166,0.678c1.22,0.271,2.332,0.271,3.579,0.271
				c20.563,0,41.14,0.353,61.711,0.67h71.705V231.37H149.807c0.087,0.076,0.176,0.167,0.273,0.299
				c0.217,0.271,0.325,0.732,0.38,1.247c-0.109,0.054-0.217,0.109-0.325,0.19C149.428,233.567,149.401,234.271,149.564,235.031z"/>
			<g>
				<g>
					<g>
						<path style="fill:#F0DDB6;" d="M284.748,236.847l-0.027,1.356l-134.723-1.816c-0.163-0.461-0.325-0.922-0.434-1.356
							L284.748,236.847z"/>
					</g>
					<g>
						<path style="fill:#F0DDB6;" d="M284.531,239.857l-0.027,1.356l-41.754-0.732l-64.989-1.166l-27.601-0.488
							c0.109-0.217,0.19-0.434,0.217-0.678c0.027-0.217,0-0.434-0.054-0.678L284.531,239.857z"/>
					</g>
					<g>
						<path style="fill:#F0DDB6;" d="M250.17,231.37l-0.185,1.171c11.557,1.837,23.333,3.124,35.002,3.829l0.082-1.356
							c-11.24-0.676-22.576-1.908-33.723-3.644H250.17z"/>
					</g>
					<g>
						<path style="fill:#F0DDB6;" d="M284.368,242.975l-0.054,0.569l-0.054,0.786c-3.633-0.271-7.293-0.542-10.954-0.786
							c-41.022-2.82-82.558-3.606-123.661-2.277c-0.081-0.271-0.136-0.515-0.136-0.786c0-0.217,0.054-0.407,0.136-0.597
							c9.354-0.271,18.735-0.461,28.116-0.569c21.636-0.19,43.353,0.19,64.989,1.166C256.659,241.05,270.541,241.89,284.368,242.975
							z"/>
					</g>
					<g>
						<path style="fill:#F0DDB6;" d="M285.019,243.544v1.356l-134.669-0.135c-0.108-0.434-0.135-0.895-0.163-1.356l123.119,0.136
							H285.019z"/>
					</g>
				</g>
			</g>
		</g>
		<g>
			<path style="fill:#241C19;" d="M290.875,251.298c-17.542-0.298-35.084-0.705-52.653-0.895
				c-27.899-0.325-55.825-0.976-83.724-0.976c-1.247,0-2.359,0-3.579-0.271c-0.461-0.081-0.922-0.271-1.166-0.678
				c-0.027-0.081-0.054-0.19-0.054-0.271c-0.027-0.651,0.732-1.6,1.139-2.25c-0.054-0.081-0.108-0.136-0.136-0.217l133.666,2.115
				v-14.749H150.133c0.108-0.081,0.217-0.135,0.325-0.19c-0.054-0.515-0.163-0.976-0.38-1.247c-0.515-0.705-0.84-0.461-1.627-0.895
				c-0.488-0.244-0.84-0.786-0.705-1.274c0.081-0.352,0.325-0.624,0.596-0.84c1.139-0.949,2.386-1.383,3.823-1.546
				c11.225-1.274,22.476-2.603,33.701-3.904c38.69-0.108,92.942-0.19,93.322,0.109c0.596,0.434,11.089,6.344,11.089,6.344
				L290.875,251.298z"/>
			<path style="fill:#363636;" d="M422.905,240.813c-0.135,3.47-1.274,4.88-4.69,5.26c-5.423,0.624-10.872,1.003-16.322,1.383
				c-18.518,1.356-37.009,3.118-55.554,3.877c-8.378,0.352-16.756,0.434-25.134,0.38c-11.306-0.081-22.612-0.271-33.918-0.461
				v-17.569c0-0.298-0.027-0.569-0.108-0.84c-0.353-1.627-1.789-2.82-3.525-2.874l-132.066-2.738c0-0.027,0-0.054,0-0.054
				c13.529-1.545,27.031-3.145,40.534-4.718c17.352-2.006,34.758-3.66,52.057-6.128c15.4-2.169,30.692-2.44,46.146-0.868
				c14.288,1.437,28.631,2.142,42.947,3.172c20.85,1.491,41.699,3.01,62.549,4.501c6.697,0.461,13.394,0.868,20.091,1.301
				c0.298,0.027,0.569,0.027,0.813,0.054c5.07,0.461,6.182,1.925,6.209,7.429C422.959,234.902,423.013,237.858,422.905,240.813z"/>
			<path style="fill:#241C19;" d="M422.905,240.813c-0.135,3.47-1.274,4.88-4.69,5.26c-5.423,0.624-10.872,1.003-16.322,1.383
				c-18.518,1.356-37.009,3.118-55.554,3.877c-8.378,0.352-16.756,0.434-25.134,0.38c-11.306-0.081-22.612-0.271-33.918-0.461
				v-17.569c0-0.298-0.027-0.569-0.108-0.84l129.545-8.351c5.07,0.461,6.182,1.925,6.209,7.429
				C422.959,234.902,423.013,237.858,422.905,240.813z"/>
		</g>
		<g>
			<g>
				<path style="fill:#FFFFFF;" d="M304.367,245.425c-0.164-1.317-0.494-2.409-0.973-3.322c0.284-0.763,0.479-1.646,0.599-2.634
					c0.239-1.96,0.254-5.551-2.185-7.631l-0.973,1.137c1.915,1.631,1.87,4.669,1.676,6.329c-0.06,0.464-0.135,0.898-0.224,1.317
					c-1.077-1.033-2.529-1.541-3.845-1.332c-0.928,0.165-1.811,0.733-2.349,1.526c-0.509,0.733-0.688,1.556-0.524,2.349
					c0.194,0.973,0.898,1.766,1.915,2.17c1.257,0.509,2.768,0.344,3.831-0.389c0.449-0.314,0.838-0.688,1.182-1.152
					c0.165,0.539,0.299,1.137,0.389,1.826c0.254,1.96,0.09,3.965-0.449,5.866c0.509,0.015,1.003,0.015,1.511,0.03
					C304.472,249.54,304.637,247.46,304.367,245.425z M300.462,243.72c-0.643,0.449-1.631,0.539-2.424,0.224
					c-0.314-0.12-0.868-0.434-1.003-1.077c-0.075-0.389,0.015-0.808,0.284-1.197c0.329-0.479,0.838-0.808,1.362-0.898
					c0.135-0.015,0.254-0.03,0.389-0.03c0.913,0,1.87,0.509,2.544,1.362c0.03,0.045,0.06,0.09,0.09,0.12
					C301.375,242.867,300.971,243.375,300.462,243.72z"/>
			</g>
			<g>
				<path style="fill:#FFFFFF;" d="M415.454,237.166c0.075-0.12,0.135-0.255,0.209-0.389c2.14-4.235,0.584-9.965-3.411-12.524
					l-0.808,1.257c3.262,2.095,4.609,6.689,3.052,10.22c-0.299-0.299-0.628-0.539-1.002-0.718c-0.868-0.389-1.99-0.254-2.798,0.344
					c-0.673,0.494-1.003,1.212-0.928,1.96c0.075,0.628,0.434,1.197,1.003,1.571c0.673,0.449,1.556,0.584,2.319,0.359
					c0.449-0.15,0.868-0.374,1.257-0.718c0.03,0.12,0.06,0.225,0.09,0.329c0.598,2.604,0.06,5.402-1.287,7.721
					c0.584-0.045,1.182-0.105,1.766-0.165c1.167-2.454,1.571-5.252,0.973-7.886C415.783,238.034,415.633,237.57,415.454,237.166z
					 M412.656,237.809c-0.329,0.09-0.748,0.03-1.062-0.165c-0.135-0.105-0.314-0.254-0.329-0.494
					c-0.03-0.269,0.15-0.464,0.314-0.584c0.24-0.18,0.554-0.269,0.838-0.269c0.165,0,0.314,0.03,0.449,0.09
					c0.344,0.15,0.614,0.389,0.823,0.688C413.404,237.405,413.06,237.689,412.656,237.809z"/>
			</g>
		</g>
		<path style="fill:#FFFFFF;" d="M415.919,224.43c-5.138-0.333-10.277-0.661-15.415-0.998l-112.672,8.115
			c-0.314-0.654-0.679-1.251-1.152-1.717c-1.368-1.347-2.909-1.36-2.999-1.358l-123.746-2.267c-2.597,0.299-5.322,0.612-7.917,0.906
			c-1.437,0.163-2.584,0.538-3.723,1.486c-0.12,0.096-0.209,0.246-0.307,0.366l135.638,2.5c0.804,0.048,2.163,1.134,2.163,4.907
			c0,3.794-0.037,10.192-0.068,14.833c0.997,0.018,1.995,0.038,2.992,0.055c0.031-4.649,0.068-11.079,0.068-14.888
			c0-0.671-0.048-1.29-0.12-1.883l131.079-9.441C418.767,224.719,417.524,224.536,415.919,224.43z"/>
	</g>
	<g>
		<g>
			<path style="fill:#F0EADD;" d="M333.114,198.96v24.271c5.042-2.789,10.071-5.603,15.07-8.466
				c-0.156-0.084-0.307-0.176-0.436-0.291c-0.054-0.054-0.108-0.108-0.163-0.163c-0.054-0.081-0.136-0.19-0.19-0.271
				c0.136-0.434,0.19-0.922,0.217-1.383v-0.135c0-0.434-0.027-0.895-0.081-1.329c-0.081-0.759-0.19-1.491-0.19-2.25v-0.19
				c0-0.461,0.081-0.895,0.136-1.328c0.054-0.461,0.108-0.922,0.108-1.356c0-0.271-0.027-0.515-0.081-0.759
				c-0.108-0.434-0.298-0.84-0.461-1.274c-0.054-0.108-0.081-0.217-0.135-0.353c-0.271-0.705-0.054-1.491,0.244-2.169
				c0.054-0.081,0.081-0.136,0.109-0.217c0.271-0.515,0.569-1.03,0.705-1.572c0.081-0.244,0.135-0.488,0.135-0.732
				c0-0.136,0-0.271-0.027-0.407c-0.054-0.434-0.217-0.868-0.38-1.301c-0.217-0.461-0.461-0.868-0.596-1.328
				c-0.027-0.054-0.054-0.135-0.081-0.19c1.003-1.139,2.928-1.979,2.684-3.308c-0.021-0.113-0.077-0.209-0.124-0.311
				C344.148,194.554,338.656,196.817,333.114,198.96z"/>
			<g>
				<g>
					<g>
						<path style="fill:#F0DDB6;" d="M333.114,203.855l14.959-5.269c-0.054-0.434-0.217-0.868-0.38-1.301l-14.58,5.143V203.855z"/>
					</g>
					<g>
						<path style="fill:#F0DDB6;" d="M333.114,205.868v1.46l14.037-5.813c0.054-0.081,0.081-0.136,0.109-0.217
							c0.271-0.515,0.569-1.03,0.705-1.572L333.114,205.868z"/>
					</g>
					<g>
						<path style="fill:#F0DDB6;" d="M333.114,211.424l14.39-6.113c-0.108-0.434-0.298-0.84-0.461-1.274l-13.929,5.911V211.424z"/>
					</g>
					<g>
						<path style="fill:#F0DDB6;" d="M333.114,213.183v1.472c4.689-1.993,9.458-3.906,14.227-5.711v-0.19
							c0-0.461,0.081-0.895,0.136-1.328C342.673,209.243,337.849,211.167,333.114,213.183z"/>
					</g>
					<g>
						<path style="fill:#F0DDB6;" d="M347.531,211.194c-4.868,2.249-9.679,4.59-14.417,6.981v1.497
							c4.781-2.395,9.613-4.751,14.498-7.013v-0.135C347.613,212.089,347.586,211.628,347.531,211.194z"/>
					</g>
				</g>
			</g>
		</g>
		<g>
			<path style="fill:#2445AD;" d="M350.107,217.674c-2.738,3.769-8.893,5.938-12.797,8.215c-0.732,0.434-1.817,0.325-2.766,0.325
				c-1.464,0-2.901-0.027-4.365-0.027l-5.829-16.593l3.714-14.939c0,0,5.857-2.196,11.686-4.284c2.033,0.054,4.067,0.108,6.1,0.163
				c1.139,0.027,3.579,0.488,3.85,1.925c0.244,1.329-1.681,2.169-2.684,3.308c0.027,0.054,0.054,0.135,0.081,0.19
				c-4.691,1.735-12.689,4.663-12.689,4.663v19.955l13.177-6.263c0.054,0.054,0.108,0.109,0.163,0.163
				c0.732,0.651,2.006,0.678,2.549,1.518C350.595,216.481,350.46,217.186,350.107,217.674z"/>
			<path style="fill:#132762;" d="M348.932,191.409c-3.226,1.41-8.025,3.037-11.794,4.23c-2.088,0.651-3.742,2.088-4.718,3.904
				c-0.596,1.166-0.949,2.467-0.949,3.85v22.775c-23.398-0.19-46.77-0.353-70.168-0.569c-27.736-0.244-55.445-0.407-83.182-0.597
				c-28.062-0.19-56.15-0.407-84.212-0.623c-6.263-0.027-6.588-0.353-8.026-6.643c-1.274-5.504-2.115-11.035-0.651-16.674
				c0.732-2.847,1.464-4.257,3.118-4.989c0.868-0.407,2.006-0.597,3.552-0.705c30.502-2.413,61.004-4.609,91.451-7.348
				c18.87-1.681,37.714-1.383,56.584-0.705c12.77,0.434,25.567,0.895,38.365,1.301c22.503,0.705,45.061,1.356,67.565,1.925
				C346.627,190.568,348.064,190.785,348.932,191.409z"/>
			<path style="fill:#132762;" d="M348.932,191.409c-3.226,1.41-8.025,3.037-11.794,4.23c-2.088,0.651-3.742,2.088-4.718,3.904
				l-244.069-3.47c0.868-0.407,2.006-0.597,3.552-0.705c30.502-2.413,61.004-4.609,91.451-7.348
				c18.87-1.681,37.714-1.383,56.584-0.705c12.77,0.434,25.567,0.895,38.365,1.301c22.503,0.705,45.061,1.356,67.565,1.925
				C346.627,190.568,348.064,190.785,348.932,191.409z"/>
		</g>
		<path style="fill:#FFFFFF;" d="M346.041,190.547l-9.874,3.997c-1.966,0.796-3.558,2.12-4.633,3.745l-232.63-3.473
			c-2.33,0.182-4.661,0.36-6.99,0.544c-2.88,0.23-4.347,0.733-5.348,2.265l243.657,3.638c-0.161,0.692-0.246,1.403-0.246,2.13
			v22.793c0.068,0.001,0.136,0.001,0.204,0.002c0.935,0,1.861,0.009,2.789,0.017v-22.812c0-1.024,0.235-2.005,0.701-2.915
			c0.704-1.379,1.99-2.501,3.62-3.161l12.355-5.001C349.257,191.066,347.192,190.612,346.041,190.547z"/>
	</g>
	<g>
		<g>
			<path style="fill:#F0EADD;" d="M309.388,199.943c-2.679-0.371,1.114-0.71,1.859-0.832c2.244-0.368,4.499-0.588,6.756-0.829
				c3.856-0.412,7.714-0.777,11.547-1.368c8.813-1.357,17.506-3.416,26.281-4.996c14.142-2.547,28.35-4.743,42.396-7.756
				c-0.175-0.203-0.339-0.413-0.476-0.635c-0.081-0.136-0.163-0.298-0.217-0.461c0-0.027,0-0.027,0-0.027
				c0.136-0.217,0.271-0.434,0.352-0.678c0.244-0.597,0.271-1.247,0.271-1.898c0-0.298-0.027-0.624-0.054-0.922
				c0-0.135-0.027-0.298-0.027-0.434c-0.081-1.193-0.163-2.386-0.244-3.579c-0.027-0.461-0.081-0.895-0.108-1.356
				c-0.027-0.542-0.081-1.085-0.108-1.627c-0.027-0.434-0.054-0.867-0.081-1.301c-0.054-0.461-0.081-0.895-0.163-1.356
				c-0.108-0.759-0.244-1.518-0.488-2.277c-0.244-0.786-0.596-1.573-0.542-2.413c0-0.109,0.027-0.217,0.054-0.298
				c0.081-0.542,0.353-1.057,0.597-1.546c0.379-0.759,0.786-1.464,0.759-2.277c-0.027-1.112-0.895-2.115-0.786-3.226
				c0-0.135,0.027-0.298,0.081-0.434c0.136-0.542,0.488-1.03,0.786-1.546c0.054-0.163,0.136-0.325,0.217-0.488
				c0.109-0.298,0.19-0.596,0.217-0.922c0.081-0.461,0.054-0.922,0-1.383c-0.054-0.379-0.108-0.759-0.217-1.112
				c0.136-0.244,0.244-0.515,0.407-0.759c0.244-0.488,0.542-1.003,0.868-1.464c0.663-0.951,1.044-1.758,1.141-2.472
				c-5.393,0.782-10.8,1.486-16.185,2.348c-10.594,1.696-21.042,4.318-31.541,6.515c-10.822,2.264-21.747,4.284-32.456,7.045
				c-4.734,1.221-9.562,2.595-14.035,4.593c-0.039,0.017-0.077,0.038-0.116,0.056v31.944
				C307.207,199.742,308.298,199.792,309.388,199.943z"/>
			<g>
				<g>
					<g>
						<path style="fill:#F0DDB6;" d="M398.267,153.079c-30.853,4.325-61.753,9.813-92.135,16.421v1.387
							c30.362-6.608,61.272-12.114,92.135-16.425C398.348,154.001,398.321,153.54,398.267,153.079z"/>
					</g>
					<g>
						<path style="fill:#F0DDB6;" d="M306.132,174.435v1.383l90.914-18.4c0.136-0.542,0.488-1.03,0.786-1.546L306.132,174.435z"/>
					</g>
					<g>
						<path style="fill:#F0DDB6;" d="M306.132,179.262v1.351c30.211-3.703,60.535-8.95,90.264-15.712
							c0.081-0.542,0.353-1.057,0.597-1.546C367.073,170.186,336.56,175.506,306.132,179.262z"/>
					</g>
					<g>
						<path style="fill:#F0DDB6;" d="M306.132,186.002c30.36-4.635,61.068-9.566,91.402-14.757
							c-0.054-0.461-0.081-0.895-0.163-1.356c-30.272,5.18-60.94,10.125-91.24,14.729V186.002z"/>
					</g>
					<g>
						<path style="fill:#F0DDB6;" d="M397.725,174.173l-70.385,12.309c-6.914,1.19-14.064,2.441-21.208,2.934v1.362
							c7.246-0.488,14.456-1.746,21.452-2.967l70.249-12.282C397.806,175.068,397.752,174.634,397.725,174.173z"/>
					</g>
					<g>
						<path style="fill:#F0DDB6;" d="M306.132,194.515c30.839-2.746,61.768-7.454,92.026-14.051c0-0.298-0.027-0.624-0.054-0.922
							c0-0.135-0.027-0.298-0.027-0.434c-30.249,6.589-61.119,11.294-91.945,14.042V194.515z"/>
					</g>
				</g>
			</g>
		</g>
		<g>
			<path style="fill:#FFB254;" d="M397.752,183.527c1.003,1.627,3.362,2.603,2.006,4.717c-0.895,1.356-3.037,1.817-4.474,2.061
				c-1.735,0.271-3.443,0.596-5.179,0.868c-27.655,4.446-55.31,8.866-82.992,13.312c-3.471,0.57-7.212,1.41-10.764,1.247
				c0.379-11.008,2.332-46.336,2.332-46.336l56.991-13.448c0,0,14.804-2.142,28.007-3.931c3.416,0.407,6.833,0.759,10.249,1.139
				c1.41,0.163,2.792,0.163,4.094,0.84c2.847,1.518,3.172,3.064,1.301,5.748c-0.325,0.461-0.624,0.976-0.868,1.464l-91.234,16.403
				v30.827L397.752,183.527z"/>
			<path style="fill:#FFCA64;" d="M400.481,146.688l-88.008,14.044c-4.013,0.651-7.348,3.091-9.218,6.426
				c-1.057,1.898-1.654,4.067-1.654,6.344v31.912c-1.925,0.271-3.85,0.434-5.694,0.298c-23.669-1.816-47.366-5.151-70.954-7.781
				c-13.963-1.518-27.926-3.037-41.889-4.555c-13.448-1.464-26.977-3.525-40.479-4.094c-7.32-0.325-10.926-3.606-12.933-10.276
				c-2.928-9.733-2.711-19.006,1.898-28.17c1.573-3.091,3.715-4.555,7.239-4.989c2.766-0.325,5.558-0.678,8.324-1.03
				c21.989-2.684,43.95-5.531,65.938-8.324c9.49-1.193,18.952-2.413,28.414-3.633c8.974-1.139,18.301-3.253,27.329-3.389
				c2.657-0.054,5.314,0.271,7.971,0.569c26.815,3.199,53.656,6.1,80.498,9.083c12.228,1.356,24.456,2.711,36.684,4.04
				c1.383,0.163,2.793,0.163,4.067,0.84C399.559,144.817,400.372,145.658,400.481,146.688z"/>
			<path style="fill:#FFD687;" d="M400.481,146.688l-88.008,14.044c-4.013,0.651-7.348,3.091-9.218,6.426
				c-18.599-2.738-113.521-16.647-156.142-22.341c21.989-2.684,43.95-5.531,65.938-8.324c9.49-1.193,18.952-2.413,28.414-3.633
				c8.974-1.139,18.301-3.253,27.329-3.389c2.657-0.054,5.314,0.271,7.971,0.569c26.815,3.199,53.656,6.1,80.498,9.083
				c12.228,1.356,24.456,2.711,36.684,4.04c1.383,0.163,2.793,0.163,4.067,0.84C399.559,144.817,400.372,145.658,400.481,146.688z"
				/>
		</g>
		<g>
			<g>
				<path style="fill:#02909C;" d="M144.89,164.191c-1.332,8.304-1.407,16.833-0.255,25.183c-0.688-0.045-1.376-0.075-2.065-0.105
					c-1.511-0.06-2.858-0.254-4.055-0.584c-1.048-8.454-0.898-17.058,0.464-25.437c1.242-7.721,3.275-13.334,6.462-17.973
					c0.464-0.688,1.147,0.501,1.671-0.127l1.758-0.544l2.738,2.245C148.272,150.918,146.132,156.44,144.89,164.191z"/>
			</g>
			<g>
				<path style="fill:#02909C;" d="M287.847,172.105c0,0.983-0.797,1.78-1.78,1.78s-1.78-0.797-1.78-1.78
					c0-0.983,0.797-1.78,1.78-1.78S287.847,171.122,287.847,172.105z"/>
				<path style="fill:#02909C;" d="M291.187,182.54c0,0.922-0.748,1.67-1.67,1.67s-1.67-0.748-1.67-1.67
					c0-0.922,0.748-1.67,1.67-1.67S291.187,181.618,291.187,182.54z"/>
				<circle style="fill:#02909C;" cx="290.707" cy="193.287" r="1.741"/>
			</g>
		</g>
		<path style="fill:#FFFFFF;" d="M399.528,145.025l-88.974,14.615c-2.166,0.444-5.609,2.068-7.863,5.386l-147.425-21.233
			c-3.758,0.466-7.61,0.972-11.369,1.432l157.359,22.618c-0.441,1.24-0.727,2.638-0.789,4.212
			c-0.26,6.677-0.145,24.263-0.061,33.505c0.998-0.113,1.997-0.267,2.988-0.433c-0.083-9.318-0.192-26.432,0.062-32.955
			c0.311-7.932,7.403-9.536,7.641-9.589l89.212-14.653C400.708,146.775,400.45,145.863,399.528,145.025z"/>
	</g>
	<g>
		<g>
			<path style="fill:#F0EADD;" d="M394.759,121.781c-0.108-0.081-0.217-0.135-0.325-0.217c-0.244-0.19-0.461-0.38-0.678-0.597
				c0.108-0.298,0.217-0.569,0.271-0.895c0.136-0.488,0.244-1.003,0.271-1.545c0.054-0.569,0.054-1.139-0.054-1.708
				c0-0.271-0.054-0.542-0.135-0.813c-0.054-0.163-0.081-0.325-0.136-0.488c-0.19-0.651-0.352-1.328-0.163-1.979
				c0-0.027,0-0.027,0.027-0.054c0.19-0.623,0.705-1.139,0.976-1.708c0.136-0.244,0.19-0.461,0.217-0.732
				c0.027-0.352-0.054-0.651-0.217-0.976c-0.19-0.407-0.461-0.786-0.651-1.193c-0.108-0.163-0.19-0.326-0.244-0.515
				c-0.19-0.542-0.217-1.112-0.163-1.681c0.027-0.461,0.081-0.922,0.108-1.383v-0.109c0.081-1.03-0.054-2.033-0.353-3.037
				c0.109-0.407,0.244-0.786,0.407-1.166c0.143-0.357,0.318-0.711,0.508-1.061c-0.272,0.075-0.495,0.137-0.636,0.18
				c-2.66,0.816-5.366,1.487-8.066,2.153c-5.388,1.33-10.813,2.524-16.132,4.116c-10.421,3.119-20.544,7.145-30.886,10.505
				c-10.959,3.561-22.124,6.537-33.222,9.629c-4.461,1.243-9.624,2.555-13.203,4.072c-1.63,0.691-2.092,1.556-4.224,3.17
				c-0.833,0.631-1.67,1.148-2.524,1.585c-0.437,3.932-0.7,7.87-0.855,11.812v19.772c6.282-0.629,12.564-3.687,18.467-5.772
				c13.638-4.853,27.275-9.706,40.913-14.56c9.598-3.389,19.25-6.588,28.848-9.923c4.989-1.708,9.977-3.498,14.939-5.341
				c3.064-1.166,6.317-2.033,9.218-3.66c0.976-0.542,3.199-1.573,3.226-2.928C400.344,122.269,396.169,122.648,394.759,121.781z"/>
			<g>
				<g>
					<g>
						<path style="fill:#F0DDB6;" d="M354.795,115.87c-5.016,1.085-10.194,2.196-15.237,3.416
							c-18.521,4.451-36.777,10.597-54.249,18.212c-0.049,0.513-0.096,1.026-0.139,1.538c17.622-7.725,36.007-13.94,54.686-18.449
							c5.043-1.193,10.222-2.332,15.237-3.416c12.906-2.793,26.164-5.667,38.663-10.493c0.027-0.461,0.081-0.922,0.108-1.383v-0.109
							C381.311,110.122,367.863,113.023,354.795,115.87z"/>
					</g>
					<g>
						<path style="fill:#F0DDB6;" d="M284.891,142.8c36.116-11.935,73.017-22.935,109.922-32.732
							c-0.19-0.407-0.461-0.786-0.651-1.193c-36.643,9.722-73.28,20.636-109.171,32.476
							C284.958,141.834,284.921,142.317,284.891,142.8z"/>
					</g>
					<g>
						<path style="fill:#F0DDB6;" d="M284.725,145.954c-0.017,0.388-0.032,0.777-0.047,1.166v0.276l109.159-33.911
							c0.19-0.623,0.705-1.139,0.976-1.708L284.725,145.954z"/>
					</g>
					<g>
						<path style="fill:#F0DDB6;" d="M284.678,153.35l109.566-36.531c0-0.271-0.054-0.542-0.135-0.813
							c-0.054-0.163-0.081-0.325-0.136-0.488l-109.294,36.387V153.35z"/>
					</g>
					<g>
						<path style="fill:#F0DDB6;" d="M284.678,157.383v1.438l109.349-38.748c0.136-0.488,0.244-1.003,0.271-1.545L284.678,157.383z"
							/>
					</g>
				</g>
			</g>
		</g>
		<g>
			<path style="fill:#FFC7BD;" d="M400.29,124.736c-0.027,1.356-2.25,2.386-3.227,2.928c-2.901,1.627-6.154,2.494-9.218,3.66
				c-4.962,1.844-9.951,3.633-14.939,5.341c-9.598,3.335-19.25,6.534-28.848,9.923c-13.638,4.853-27.275,9.706-40.913,14.56
				c-5.911,2.088-12.201,5.151-18.491,5.775c-1.654,0.163-3.281,0.163-4.935,0.054l-0.732-42.079c0,0,75.102-22.585,107.746-32.102
				c1.112,0.109,2.25,0.217,3.362,0.325c1.979,0.163,6.399,0.325,6.561,3.064c0.081,1.383-1.247,2.169-1.925,3.2
				c-0.325,0.515-0.596,1.057-0.813,1.599l-107.393,33.457l0.895,27.736l107.014-40.615c0.108,0.081,0.217,0.135,0.325,0.217
				C396.169,122.648,400.344,122.269,400.29,124.736z"/>
			<path style="fill:#F77E68;" d="M395.156,94.16l-108.315,34.026c-1.762,0.542-3.172,1.735-4.04,3.254
				c-0.678,1.085-1.03,2.332-1.03,3.66v31.939c-5.151-0.054-10.276-1.41-15.319-2.304c-9.11-1.6-18.247-3.172-27.357-4.772
				c-17.922-3.145-36.358-5.287-54.063-9.462c-11.36-1.979-22.666-4.365-34.081-5.829c-8.568-1.085-11.414-4.962-13.177-13.339
				c-1.491-7.212,0.813-13.882,4.718-20.009c0.651-1.03,1.545-1.79,2.521-2.359h0.027c0.596-0.353,1.247-0.651,1.898-0.895
				c25.513-9.706,50.999-19.413,76.485-29.119c1.762-0.651,3.579-0.922,5.504-0.732c26.543,2.467,53.087,4.907,79.657,7.348
				c27.167,2.521,54.334,5.016,81.501,7.537C391.36,93.211,393.638,93.347,395.156,94.16z"/>
			<path style="fill:#FFAB9C;" d="M282.801,131.44c-0.678,1.085-1.03,2.332-1.03,3.66v31.939c-5.151-0.054-10.276-1.41-15.319-2.304
				c-9.11-1.6-18.247-3.172-27.357-4.772c-17.922-3.145-36.358-5.287-54.063-9.462c-11.36-1.979-22.666-4.365-34.081-5.829
				c-8.568-1.085-11.414-4.962-13.177-13.339c-1.491-7.212,0.813-13.882,4.718-20.009c0.651-1.03,1.545-1.79,2.521-2.359h0.027
				L282.801,131.44z"/>
		</g>
		<g>
			<g>
				<path style="fill:#FFFFFF;" d="M258.146,163.308c-0.509-0.09-1.003-0.18-1.511-0.269c-0.419-12.09,0.868-24.15,3.801-35.912
					l1.451,0.374C258.954,139.202,257.697,151.247,258.146,163.308z"/>
			</g>
			<g>
				<path style="fill:#FFFFFF;" d="M265.418,127.98c-2.798,11.761-4.205,23.806-4.205,35.867c-0.494-0.09-1.003-0.18-1.496-0.269
					c0.015-12.105,1.436-24.165,4.235-35.956L265.418,127.98z"/>
			</g>
			<g>
				<path style="fill:#FFFFFF;" d="M156.696,110.338c-3.157,11.252-4.788,22.789-4.848,34.445c-0.299-0.045-0.614-0.075-0.913-0.12
					c-0.195-0.03-0.389-0.045-0.584-0.075c0.075-11.716,1.721-23.343,4.893-34.655L156.696,110.338z"/>
			</g>
		</g>
		<path style="fill:#FFFFFF;" d="M390.762,93.159L285.114,127.29c-0.102,0.034-1.647,0.583-2.897,2.379L148.608,107.43
			c-0.553,0.211-1.107,0.421-1.66,0.631c-1.082,0.41-2.116,0.902-3.023,1.654l137.041,22.779c-0.138,0.553-0.244,1.156-0.299,1.824
			c-0.287,3.481-0.162,22.411-0.07,32.685c0.998,0.041,1.996,0.032,2.993-0.025c-0.091-10.226-0.215-29.087,0.061-32.413
			c0.295-3.581,2.361-4.417,2.402-4.434l109.855-35.488C394.703,93.533,392.354,93.283,390.762,93.159z"/>
	</g>
</g>
<g id="TEXTS">
	
		<text transform="matrix(0.9886 0.1504 -0.1504 0.9886 100.6373 378.4135)" style="fill:#FFFFFF; font-family:'Domine-Regular'; font-size:32.2385px;">Belle&amp;Me</text>
	<g>
		<g>
			
				<text transform="matrix(0.9851 0.1717 -0.1717 0.9851 130.5443 327.132)" style="fill:#FFD687; font-family:'Aclonica-Regular'; font-size:24.6534px;">YOGA</text>
			
				<text transform="matrix(0.9851 0.1717 -0.1717 0.9851 210.6928 341.4963)" style="fill:#FFD687; font-family:'Aclonica-Regular'; font-size:24.6534px;">4U</text>
		</g>
	</g>
	<g>
		
			<text transform="matrix(0.9685 -0.2491 0.2491 0.9685 286.38 315.8411)" style="fill:#241C19; font-family:'BalsamiqSans-Regular'; font-size:13.9842px;">tales for kids</text>
	</g>
	
		<text transform="matrix(0.9723 0.2337 -0.2337 0.9723 116.8527 255.9571)" style="fill:#FFFFFF; font-family:'Mali-Regular'; font-size:12.8638px;">the elements of life</text>
	
		<text transform="matrix(0.9989 -0.0459 0.0459 0.9989 334.0857 247.5674)" style="fill:#FFFFFF; font-family:'BalsamiqSans-Regular'; font-size:16.5805px; letter-spacing:3;">ECO</text>
	
		<text transform="matrix(1 0 0 1 113.9952 219.5853)" style="fill:#FFFFFF; font-family:'BalsamiqSans-Regular'; font-size:21.491px; letter-spacing:4;">MINIMALISM</text>
	
		<text transform="matrix(0.9946 0.1039 -0.1039 0.9946 150.4478 178.5725)" style="fill:#02909C; font-family:'Aclonica-Regular'; font-size:24.6535px;">ART DECO</text>
	<g>
		
			<text transform="matrix(0.988 0.1543 -0.1543 0.988 156.4717 136.1223)" style="fill:#FFFFFF; font-family:'BalsamiqSans-Regular'; font-size:19.7509px;">in the night</text>
		<g>
			
				<text transform="matrix(0.1671 -0.9859 0.9859 0.1671 150.2422 130.5564)" style="fill:#FFFFFF; font-family:'BalsamiqSans-Regular'; font-size:12.7201px;">2</text>
		</g>
		<g>
			
				<text transform="matrix(0.1137 -0.9935 0.9935 0.1137 273.2876 159.2821)" style="fill:#FFFFFF; font-family:'BalsamiqSans-Regular'; font-size:12.7201px;">156</text>
		</g>
	</g>
</g>
</svg>
